<?xml version="1.0" encoding="utf-8" standalone="no"?>
<!DOCTYPE svg PUBLIC "-//W3C//DTD SVG 1.1//EN" "http://www.w3.org/Graphics/SVG/1.1/DTD/svg11.dtd">
<svg width="600" height="400" version="1.1" xmlns:xlink="http://www.w3.org/1999/xlink" xmlns="http://www.w3.org/2000/svg">
  <polyline points="37.5058,370.947 37.5058,374.947" style="fill:none;stroke:black;stroke-width:1" />
  <polyline points="75.7319,370.947 75.7319,374.947" style="fill:none;stroke:black;stroke-width:1" />
  <polyline points="94.8449,370.947 94.8449,374.947" style="fill:none;stroke:black;stroke-width:1" />
  <polyline points="113.9579,370.947 113.9579,374.947" style="fill:none;stroke:black;stroke-width:1" />
  <polyline points="133.071,370.947 133.071,374.947" style="fill:none;stroke:black;stroke-width:1" />
  <polyline points="171.2971,370.947 171.2971,374.947" style="fill:none;stroke:black;stroke-width:1" />
  <polyline points="190.4101,370.947 190.4101,374.947" style="fill:none;stroke:black;stroke-width:1" />
  <polyline points="209.5232,370.947 209.5232,374.947" style="fill:none;stroke:black;stroke-width:1" />
  <polyline points="228.6362,370.947 228.6362,374.947" style="fill:none;stroke:black;stroke-width:1" />
  <polyline points="266.8623,370.947 266.8623,374.947" style="fill:none;stroke:black;stroke-width:1" />
  <polyline points="285.9753,370.947 285.9753,374.947" style="fill:none;stroke:black;stroke-width:1" />
  <polyline points="305.0884,370.947 305.0884,374.947" style="fill:none;stroke:black;stroke-width:1" />
  <polyline points="324.2014,370.947 324.2014,374.947" style="fill:none;stroke:black;stroke-width:1" />
  <polyline points="362.4275,370.947 362.4275,374.947" style="fill:none;stroke:black;stroke-width:1" />
  <polyline points="381.5405,370.947 381.5405,374.947" style="fill:none;stroke:black;stroke-width:1" />
  <polyline points="400.6536,370.947 400.6536,374.947" style="fill:none;stroke:black;stroke-width:1" />
  <polyline points="419.7666,370.947 419.7666,374.947" style="fill:none;stroke:black;stroke-width:1" />
  <polyline points="457.9927,370.947 457.9927,374.947" style="fill:none;stroke:black;stroke-width:1" />
  <polyline points="477.1058,370.947 477.1058,374.947" style="fill:none;stroke:black;stroke-width:1" />
  <polyline points="496.2188,370.947 496.2188,374.947" style="fill:none;stroke:black;stroke-width:1" />
  <polyline points="515.3319,370.947 515.3319,374.947" style="fill:none;stroke:black;stroke-width:1" />
  <polyline points="553.5579,370.947 553.5579,374.947" style="fill:none;stroke:black;stroke-width:1" />
  <polyline points="572.671,370.947 572.671,374.947" style="fill:none;stroke:black;stroke-width:1" />
  <polyline points="592,370.947 592,374.947" style="fill:none;stroke:black;stroke-width:1" />
  <polyline points="34.498,354.1929 30.498,354.1929" style="fill:none;stroke:black;stroke-width:1" />
  <polyline points="34.498,341.7926 30.498,341.7926" style="fill:none;stroke:black;stroke-width:1" />
  <polyline points="34.498,329.3922 30.498,329.3922" style="fill:none;stroke:black;stroke-width:1" />
  <polyline points="34.498,316.9919 30.498,316.9919" style="fill:none;stroke:black;stroke-width:1" />
  <polyline points="34.498,292.1912 30.498,292.1912" style="fill:none;stroke:black;stroke-width:1" />
  <polyline points="34.498,279.7909 30.498,279.7909" style="fill:none;stroke:black;stroke-width:1" />
  <polyline points="34.498,267.3906 30.498,267.3906" style="fill:none;stroke:black;stroke-width:1" />
  <polyline points="34.498,254.9902 30.498,254.9902" style="fill:none;stroke:black;stroke-width:1" />
  <polyline points="34.498,230.1896 30.498,230.1896" style="fill:none;stroke:black;stroke-width:1" />
  <polyline points="34.498,217.7892 30.498,217.7892" style="fill:none;stroke:black;stroke-width:1" />
  <polyline points="34.498,205.3889 30.498,205.3889" style="fill:none;stroke:black;stroke-width:1" />
  <polyline points="34.498,192.9886 30.498,192.9886" style="fill:none;stroke:black;stroke-width:1" />
  <polyline points="34.498,168.1879 30.498,168.1879" style="fill:none;stroke:black;stroke-width:1" />
  <polyline points="34.498,155.7876 30.498,155.7876" style="fill:none;stroke:black;stroke-width:1" />
  <polyline points="34.498,143.3872 30.498,143.3872" style="fill:none;stroke:black;stroke-width:1" />
  <polyline points="34.498,130.9869 30.498,130.9869" style="fill:none;stroke:black;stroke-width:1" />
  <polyline points="34.498,106.1862 30.498,106.1862" style="fill:none;stroke:black;stroke-width:1" />
  <polyline points="34.498,93.7859 30.498,93.7859" style="fill:none;stroke:black;stroke-width:1" />
  <polyline points="34.498,81.3856 30.498,81.3856" style="fill:none;stroke:black;stroke-width:1" />
  <polyline points="34.498,68.9852 30.498,68.9852" style="fill:none;stroke:black;stroke-width:1" />
  <polyline points="34.498,44.1846 30.498,44.1846" style="fill:none;stroke:black;stroke-width:1" />
  <polyline points="34.498,31.7842 30.498,31.7842" style="fill:none;stroke:black;stroke-width:1" />
  <text dominant-baseline="hanging" text-anchor="middle" transform="translate(56.6188,381.947)" font-family="Segoe UI" font-size="12" font-weight="400" fill="black">-1.5</text>
  <text dominant-baseline="hanging" text-anchor="middle" transform="translate(152.184,381.947)" font-family="Segoe UI" font-size="12" font-weight="400" fill="black">-1</text>
  <text dominant-baseline="hanging" text-anchor="middle" transform="translate(247.7492,381.947)" font-family="Segoe UI" font-size="12" font-weight="400" fill="black">-0.5</text>
  <text dominant-baseline="hanging" text-anchor="middle" transform="translate(343.3145,381.947)" font-family="Segoe UI" font-size="12" font-weight="400" fill="black">0</text>
  <text dominant-baseline="hanging" text-anchor="middle" transform="translate(438.8797,381.947)" font-family="Segoe UI" font-size="12" font-weight="400" fill="black">0.5</text>
  <text dominant-baseline="hanging" text-anchor="middle" transform="translate(534.4449,381.947)" font-family="Segoe UI" font-size="12" font-weight="400" fill="black">1</text>
  <polyline points="56.6188,370.947 56.6188,377.947" style="fill:none;stroke:black;stroke-width:1" />
  <polyline points="152.184,370.947 152.184,377.947" style="fill:none;stroke:black;stroke-width:1" />
  <polyline points="247.7492,370.947 247.7492,377.947" style="fill:none;stroke:black;stroke-width:1" />
  <polyline points="343.3145,370.947 343.3145,377.947" style="fill:none;stroke:black;stroke-width:1" />
  <polyline points="438.8797,370.947 438.8797,377.947" style="fill:none;stroke:black;stroke-width:1" />
  <polyline points="534.4449,370.947 534.4449,377.947" style="fill:none;stroke:black;stroke-width:1" />
  <text dominant-baseline="middle" text-anchor="end" transform="translate(23.498,366.5932)" font-family="Segoe UI" font-size="12" font-weight="400" fill="black">-1.5</text>
  <text dominant-baseline="middle" text-anchor="end" transform="translate(23.498,304.5916)" font-family="Segoe UI" font-size="12" font-weight="400" fill="black">-1</text>
  <text dominant-baseline="middle" text-anchor="end" transform="translate(23.498,242.5899)" font-family="Segoe UI" font-size="12" font-weight="400" fill="black">-0.5</text>
  <text dominant-baseline="middle" text-anchor="end" transform="translate(23.498,180.5882)" font-family="Segoe UI" font-size="12" font-weight="400" fill="black">0</text>
  <text dominant-baseline="middle" text-anchor="end" transform="translate(23.498,118.5866)" font-family="Segoe UI" font-size="12" font-weight="400" fill="black">0.5</text>
  <text dominant-baseline="middle" text-anchor="end" transform="translate(23.498,56.5849)" font-family="Segoe UI" font-size="12" font-weight="400" fill="black">1</text>
  <polyline points="34.498,366.5932 27.498,366.5932" style="fill:none;stroke:black;stroke-width:1" />
  <polyline points="34.498,304.5916 27.498,304.5916" style="fill:none;stroke:black;stroke-width:1" />
  <polyline points="34.498,242.5899 27.498,242.5899" style="fill:none;stroke:black;stroke-width:1" />
  <polyline points="34.498,180.5882 27.498,180.5882" style="fill:none;stroke:black;stroke-width:1" />
  <polyline points="34.498,118.5866 27.498,118.5866" style="fill:none;stroke:black;stroke-width:1" />
  <polyline points="34.498,56.5849 27.498,56.5849" style="fill:none;stroke:black;stroke-width:1" />
  <ellipse cx="278.1079" cy="145.7247" rx="5" ry="5" style="fill:rgb(255,0,255);stroke:none;" />
  <ellipse cx="138.1407" cy="180.5398" rx="5" ry="5" style="fill:rgb(255,0,255);stroke:none;" />
  <ellipse cx="86.1308" cy="178.2414" rx="5" ry="5" style="fill:rgb(255,0,255);stroke:none;" />
  <ellipse cx="146.0127" cy="167.0833" rx="5" ry="5" style="fill:rgb(255,0,255);stroke:none;" />
  <ellipse cx="216.3868" cy="189.8099" rx="5" ry="5" style="fill:rgb(255,0,255);stroke:none;" />
  <ellipse cx="129.6731" cy="187.3135" rx="5" ry="5" style="fill:rgb(255,0,255);stroke:none;" />
  <ellipse cx="103.4369" cy="180.3417" rx="5" ry="5" style="fill:rgb(255,0,255);stroke:none;" />
  <ellipse cx="235.668" cy="185.4678" rx="5" ry="5" style="fill:rgb(255,0,255);stroke:none;" />
  <ellipse cx="209.4317" cy="178.4959" rx="5" ry="5" style="fill:rgb(255,0,255);stroke:none;" />
  <ellipse cx="74.7217" cy="169.1271" rx="5" ry="5" style="fill:rgb(255,0,255);stroke:none;" />
  <ellipse cx="216.3868" cy="189.8099" rx="5" ry="5" style="fill:rgb(255,0,255);stroke:none;" />
  <ellipse cx="59.299" cy="164.5869" rx="5" ry="5" style="fill:rgb(255,0,255);stroke:none;" />
  <ellipse cx="40.0178" cy="168.929" rx="5" ry="5" style="fill:rgb(255,0,255);stroke:none;" />
  <ellipse cx="289.2265" cy="192.5869" rx="5" ry="5" style="fill:rgb(255,0,255);stroke:none;" />
  <ellipse cx="210.9804" cy="183.3168" rx="5" ry="5" style="fill:rgb(255,0,255);stroke:none;" />
  <ellipse cx="124.2667" cy="180.8204" rx="5" ry="5" style="fill:rgb(255,0,255);stroke:none;" />
  <ellipse cx="289.2265" cy="192.5869" rx="5" ry="5" style="fill:rgb(255,0,255);stroke:none;" />
  <ellipse cx="306.5994" cy="181.76" rx="5" ry="5" style="fill:rgb(255,0,255);stroke:none;" />
  <ellipse cx="139.6894" cy="185.3606" rx="5" ry="5" style="fill:rgb(255,0,255);stroke:none;" />
  <ellipse cx="217.9355" cy="194.6307" rx="5" ry="5" style="fill:rgb(255,0,255);stroke:none;" />
  <ellipse cx="217.9355" cy="194.6307" rx="5" ry="5" style="fill:rgb(255,0,255);stroke:none;" />
  <ellipse cx="202.5129" cy="190.0905" rx="5" ry="5" style="fill:rgb(255,0,255);stroke:none;" />
  <ellipse cx="289.2265" cy="192.5869" rx="5" ry="5" style="fill:rgb(255,0,255);stroke:none;" />
  <ellipse cx="87.6795" cy="183.0623" rx="5" ry="5" style="fill:rgb(255,0,255);stroke:none;" />
  <ellipse cx="229.3447" cy="203.7451" rx="5" ry="5" style="fill:rgb(255,0,255);stroke:none;" />
  <ellipse cx="222.3896" cy="192.4311" rx="5" ry="5" style="fill:rgb(255,0,255);stroke:none;" />
  <ellipse cx="151.0985" cy="194.4749" rx="5" ry="5" style="fill:rgb(255,0,255);stroke:none;" />
  <ellipse cx="222.3896" cy="192.4311" rx="5" ry="5" style="fill:rgb(255,0,255);stroke:none;" />
  <ellipse cx="301.776" cy="193.9649" rx="5" ry="5" style="fill:rgb(255,0,255);stroke:none;" />
  <ellipse cx="203.1084" cy="196.7733" rx="5" ry="5" style="fill:rgb(255,0,255);stroke:none;" />
  <ellipse cx="406.522" cy="217.506" rx="5" ry="5" style="fill:rgb(0,191,127);stroke:none;" />
  <ellipse cx="495.585" cy="238.1498" rx="5" ry="5" style="fill:rgb(0,191,127);stroke:none;" />
  <ellipse cx="401.666" cy="283.8865" rx="5" ry="5" style="fill:rgb(0,191,127);stroke:none;" />
  <ellipse cx="421.0265" cy="277.5364" rx="5" ry="5" style="fill:rgb(0,191,127);stroke:none;" />
  <ellipse cx="412.8125" cy="212.8059" rx="5" ry="5" style="fill:rgb(0,191,127);stroke:none;" />
  <ellipse cx="446.3777" cy="332.7779" rx="5" ry="5" style="fill:rgb(0,191,127);stroke:none;" />
  <ellipse cx="461.3225" cy="367.5622" rx="5" ry="5" style="fill:rgb(0,191,127);stroke:none;" />
  <ellipse cx="461.3225" cy="367.5622" rx="5" ry="5" style="fill:rgb(0,191,127);stroke:none;" />
  <ellipse cx="303.5861" cy="161.3343" rx="5" ry="5" style="fill:rgb(0,191,127);stroke:none;" />
  <ellipse cx="421.2098" cy="175.1914" rx="5" ry="5" style="fill:rgb(0,191,127);stroke:none;" />
  <ellipse cx="386.6314" cy="184.7067" rx="5" ry="5" style="fill:rgb(0,191,127);stroke:none;" />
  <ellipse cx="391.6153" cy="191.8065" rx="5" ry="5" style="fill:rgb(0,191,127);stroke:none;" />
  <ellipse cx="365.2614" cy="203.9162" rx="5" ry="5" style="fill:rgb(0,191,127);stroke:none;" />
  <ellipse cx="287.6778" cy="187.7661" rx="5" ry="5" style="fill:rgb(0,191,127);stroke:none;" />
  <ellipse cx="291.5008" cy="188.6336" rx="5" ry="5" style="fill:rgb(0,191,127);stroke:none;" />
  <ellipse cx="314.9187" cy="187.7607" rx="5" ry="5" style="fill:rgb(0,191,127);stroke:none;" />
  <ellipse cx="454.437" cy="166.071" rx="5" ry="5" style="fill:rgb(0,191,127);stroke:none;" />
  <ellipse cx="396.0159" cy="187.1811" rx="5" ry="5" style="fill:rgb(0,191,127);stroke:none;" />
  <ellipse cx="378.643" cy="198.0081" rx="5" ry="5" style="fill:rgb(0,191,127);stroke:none;" />
  <ellipse cx="394.3502" cy="192.6771" rx="5" ry="5" style="fill:rgb(0,191,127);stroke:none;" />
  <ellipse cx="364.7235" cy="150.9713" rx="5" ry="5" style="fill:rgb(0,191,127);stroke:none;" />
  <ellipse cx="304.2998" cy="183.1866" rx="5" ry="5" style="fill:rgb(0,191,127);stroke:none;" />
  <ellipse cx="420.0808" cy="178.4231" rx="5" ry="5" style="fill:rgb(0,191,127);stroke:none;" />
  <ellipse cx="371.8049" cy="197.8232" rx="5" ry="5" style="fill:rgb(0,191,127);stroke:none;" />
  <ellipse cx="406.9629" cy="255.5291" rx="5" ry="5" style="fill:rgb(0,191,127);stroke:none;" />
  <ellipse cx="401.7374" cy="180.552" rx="5" ry="5" style="fill:rgb(0,191,127);stroke:none;" />
  <ellipse cx="437.6532" cy="342.9168" rx="5" ry="5" style="fill:rgb(0,191,127);stroke:none;" />
  <ellipse cx="392.9415" cy="294.0254" rx="5" ry="5" style="fill:rgb(0,191,127);stroke:none;" />
  <ellipse cx="392.9415" cy="294.0254" rx="5" ry="5" style="fill:rgb(0,191,127);stroke:none;" />
  <ellipse cx="392.9415" cy="294.0254" rx="5" ry="5" style="fill:rgb(0,191,127);stroke:none;" />
  <ellipse cx="437.6532" cy="342.9168" rx="5" ry="5" style="fill:rgb(0,191,127);stroke:none;" />
  <ellipse cx="422.7084" cy="308.1326" rx="5" ry="5" style="fill:rgb(0,191,127);stroke:none;" />
  <ellipse cx="422.7084" cy="308.1326" rx="5" ry="5" style="fill:rgb(0,191,127);stroke:none;" />
  <ellipse cx="422.7084" cy="308.1326" rx="5" ry="5" style="fill:rgb(0,191,127);stroke:none;" />
  <ellipse cx="397.3572" cy="252.891" rx="5" ry="5" style="fill:rgb(0,191,127);stroke:none;" />
  <ellipse cx="287.9517" cy="201.7472" rx="5" ry="5" style="fill:rgb(0,191,127);stroke:none;" />
  <ellipse cx="543.802" cy="192.8151" rx="5" ry="5" style="fill:rgb(255,0,0);stroke:none;" />
  <ellipse cx="500.1246" cy="138.8983" rx="5" ry="5" style="fill:rgb(255,0,0);stroke:none;" />
  <ellipse cx="450.052" cy="128.1025" rx="5" ry="5" style="fill:rgb(255,0,0);stroke:none;" />
  <ellipse cx="375.1449" cy="87.3047" rx="5" ry="5" style="fill:rgb(255,0,0);stroke:none;" />
  <ellipse cx="491.8753" cy="113.7014" rx="5" ry="5" style="fill:rgb(255,0,0);stroke:none;" />
  <ellipse cx="586.5348" cy="164.8785" rx="5" ry="5" style="fill:rgb(255,0,0);stroke:none;" />
  <ellipse cx="386.1538" cy="104.2744" rx="5" ry="5" style="fill:rgb(255,0,0);stroke:none;" />
  <ellipse cx="435.3118" cy="96.1111" rx="5" ry="5" style="fill:rgb(255,0,0);stroke:none;" />
  <ellipse cx="479.2254" cy="71.3365" rx="5" ry="5" style="fill:rgb(255,0,0);stroke:none;" />
  <ellipse cx="357.4236" cy="118.3933" rx="5" ry="5" style="fill:rgb(255,0,0);stroke:none;" />
  <ellipse cx="269.7389" cy="83.3853" rx="5" ry="5" style="fill:rgb(255,0,0);stroke:none;" />
  <ellipse cx="427.8667" cy="101.4563" rx="5" ry="5" style="fill:rgb(255,0,0);stroke:none;" />
  <ellipse cx="364.7281" cy="110.975" rx="5" ry="5" style="fill:rgb(255,0,0);stroke:none;" />
  <ellipse cx="408.3593" cy="54.2823" rx="5" ry="5" style="fill:rgb(255,0,0);stroke:none;" />
  <ellipse cx="452.7032" cy="128.309" rx="5" ry="5" style="fill:rgb(255,0,0);stroke:none;" />
  <ellipse cx="552.1266" cy="149.5991" rx="5" ry="5" style="fill:rgb(255,0,0);stroke:none;" />
  <ellipse cx="434.7645" cy="133.6693" rx="5" ry="5" style="fill:rgb(255,0,0);stroke:none;" />
  <ellipse cx="463.1984" cy="100.8469" rx="5" ry="5" style="fill:rgb(255,0,0);stroke:none;" />
  <ellipse cx="528.8741" cy="34.3714" rx="5" ry="5" style="fill:rgb(255,0,0);stroke:none;" />
  <ellipse cx="512.2234" cy="51.3656" rx="5" ry="5" style="fill:rgb(255,0,0);stroke:none;" />
  <ellipse cx="424.3265" cy="154.0847" rx="5" ry="5" style="fill:rgb(255,0,0);stroke:none;" />
  <ellipse cx="440.6355" cy="119.6808" rx="5" ry="5" style="fill:rgb(255,0,0);stroke:none;" />
  <ellipse cx="323.1557" cy="32.4308" rx="5" ry="5" style="fill:rgb(255,0,0);stroke:none;" />
  <ellipse cx="327.2619" cy="119.9549" rx="5" ry="5" style="fill:rgb(255,0,0);stroke:none;" />
  <ellipse cx="408.2172" cy="157.4494" rx="5" ry="5" style="fill:rgb(255,0,0);stroke:none;" />
  <ellipse cx="435.5953" cy="87.8877" rx="5" ry="5" style="fill:rgb(255,0,0);stroke:none;" />
  <ellipse cx="423.51" cy="136.7296" rx="5" ry="5" style="fill:rgb(255,0,0);stroke:none;" />
  <ellipse cx="427.333" cy="137.5972" rx="5" ry="5" style="fill:rgb(255,0,0);stroke:none;" />
  <ellipse cx="406.1718" cy="146.3923" rx="5" ry="5" style="fill:rgb(255,0,0);stroke:none;" />
  <ellipse cx="350.4565" cy="124.1449" rx="5" ry="5" style="fill:rgb(255,0,0);stroke:none;" />
  <ellipse cx="371.174" cy="105.4155" rx="5" ry="5" style="fill:rgb(255,0,0);stroke:none;" />
  <ellipse cx="380.9584" cy="148.2782" rx="5" ry="5" style="fill:rgb(255,0,0);stroke:none;" />
  <ellipse cx="410.9825" cy="137.4456" rx="5" ry="5" style="fill:rgb(255,0,0);stroke:none;" />
  <ellipse cx="382.2197" cy="163.4409" rx="5" ry="5" style="fill:rgb(255,0,0);stroke:none;" />
  <text dominant-baseline="hanging" text-anchor="middle" transform="translate(313.249,8)" font-family="Segoe UI" font-size="18" font-weight="700" fill="black">Customer Segmentation</text>
  <polygon points="34.498,29.0795 592,29.0795 592,370.947 34.498,370.947" style="fill:none;stroke:black;stroke-width:1" />
  <polygon points="509.516,37.0795 584,37.0795 584,83.2385 509.516,83.2385" style="fill:none;stroke:none;" />
  <text dominant-baseline="hanging" text-anchor="start" transform="translate(537.516,45.0795)" font-family="Segoe UI" font-size="12" font-weight="400" fill="black">Cluster: 1</text>
  <ellipse cx="525.516" cy="50.106" rx="5" ry="5" style="fill:rgb(255,0,255);stroke:none;" />
  <text dominant-baseline="hanging" text-anchor="start" transform="translate(537.516,55.1325)" font-family="Segoe UI" font-size="12" font-weight="400" fill="black">Cluster: 2</text>
  <ellipse cx="525.516" cy="60.159" rx="5" ry="5" style="fill:rgb(0,191,127);stroke:none;" />
  <text dominant-baseline="hanging" text-anchor="start" transform="translate(537.516,65.1855)" font-family="Segoe UI" font-size="12" font-weight="400" fill="black">Cluster: 3</text>
  <ellipse cx="525.516" cy="70.212" rx="5" ry="5" style="fill:rgb(255,0,0);stroke:none;" />
</svg>